<svg xmlns="http://www.w3.org/2000/svg" xmlns:xlink="http://www.w3.org/1999/xlink" width="220" height="96" viewBox="0 0 220 96">
  <defs>
    <clipPath id="clip-path">
      <rect id="range" width="220" height="96" transform="translate(-1.406 0.349)" fill="none"/>
    </clipPath>
  </defs>
  <g id="BikeBOOK_logo" transform="translate(1.406 -0.349)" clip-path="url(#clip-path)">
    <g id="Logo">
      <path id="speed_line" d="M-34.834-55.387h0Zm-11.74-4.045h0ZM-15.422-64h0ZM-71-64h0Z" transform="translate(218.943 88.715)" fill="none" stroke="#b4b4b5" stroke-linecap="round" stroke-linejoin="round" stroke-width="1"/>
      <path id="寶島自行車道" d="M-12.962-57.577a5.686,5.686,0,0,1,1.022-.831,9.35,9.35,0,0,0,1.045-1.56h-.975c.347-.443.787-1.079,1.18-1.672h-.831l.163-.5h1.537c-.363.539-.8,1.17-1.163,1.687h.509l.105-.023.22.1a13.456,13.456,0,0,1-1.243,1.935c.115.081.25.225.473.39a3.356,3.356,0,0,0,1.976.374c.96,0,2.2-.075,3.064-.158a2.848,2.848,0,0,0-.359.577c-.566.038-2,.083-2.891.083a3.387,3.387,0,0,1-2.055-.412c-.248-.18-.444-.435-.608-.435s-.573.472-.95.944Zm-8.732.487.361-1.11h-3.027l.163-.5h3.027l.2-.616h-2.247l.941-2.9h2.248l.177-.547h-2.8l.166-.51h2.8l.219-.674h.563l-.219.674h2.841l-.167.51h-2.841l-.176.547h2.308l-.941,2.9h-2.309l-.2.616h3.1l-.164.5h-3.1l-.361,1.11Zm1.436-2.684H-18.5l.25-.771h-1.754Zm-2.28,0h1.716l.25-.771h-1.715Zm2.674-1.213h1.753l.249-.765h-1.754Zm-2.279,0h1.715l.248-.765h-1.714Zm-13.22,3.9,1.082-3.328c-.379.292-.752.563-1.1.781a3.342,3.342,0,0,0-.237-.466,13.256,13.256,0,0,0,2.83-2.255l.454.194a15.173,15.173,0,0,1-1.193,1.131l-1.28,3.943Zm-19.458-.03a.994.994,0,0,0,.014-.487,6.714,6.714,0,0,0,.73.045.364.364,0,0,0,.274-.083,4.607,4.607,0,0,0,.8-1.521h-4.857l1.358-4.183h1.732c.165-.21.327-.449.436-.623l.611.076c-.158.2-.309.374-.47.547h2.279l-.743,2.285H-56.7l-.175.541h5.143l-.14.435h-5.144l-.158.486h4.879s-.058.157-.094.225a5.98,5.98,0,0,1-1.079,2.07.919.919,0,0,1-.513.2c-.063.005-.144.007-.237.007C-54.387-57.1-54.6-57.1-54.82-57.119Zm-1.741-4.355h3.493l.172-.532h-3.493Zm.3-.906h3.493l.179-.556h-3.492ZM-47.19-57.1l1.9-5.838h1.881c.219-.329.471-.735.626-1.028l.611.083c-.218.322-.464.661-.683.945h2.691l-1.886,5.8h-.577l.125-.382h-4l-.137.419Zm.861-.944h4l.361-1.11h-4Zm.532-1.634h4l.352-1.087h-4Zm.523-1.612h4l.363-1.117h-4Zm-21.789,3.441.373-.248h-1.723l.293.226a11.759,11.759,0,0,1-2.672.749A3.111,3.111,0,0,0-71-57.494a12.707,12.707,0,0,0,2.347-.6h-1.179l.778-2.39h4.79l-.776,2.39h-1.3a18.038,18.038,0,0,1,1.915.653l-.6.345A13.555,13.555,0,0,0-67.063-57.846Zm-2.119-.586h3.7l.117-.359h-3.7Zm.225-.688h3.694l.116-.352h-3.7Zm.221-.683h3.7l.112-.345h-3.7Zm36.2,2.129c.527.015,1.022.015,1.167.008s.2-.038.241-.166l1-3.088h-2.5l.174-.533h4.2l-.172.533h-1.132l-1.007,3.094a.788.788,0,0,1-.526.608,6.094,6.094,0,0,1-1.436.082A1.669,1.669,0,0,0-32.54-57.674Zm-22.969.3.076-.232h-3.561l.389-1.2h.517l-.246.758h1.267l.326-1h.518l-.327,1h1.258l.257-.787h.517l-.475,1.462ZM-9.987-58.4l1.137-3.5h1.193c.121-.187.251-.4.361-.6H-9.27l.151-.464h1.252a2.831,2.831,0,0,0-.232-.788l.5-.179a2.4,2.4,0,0,1,.261.817l-.365.15H-6.36a9.624,9.624,0,0,0,.9-.983l.49.157c-.268.269-.556.577-.815.825H-4.4l-.151.464H-6.683c-.151.21-.307.411-.442.6h1.752L-6.51-58.4Zm.663-.428h2.406l.205-.629H-9.119Zm.331-1.018h2.407l.2-.631h-2.4Zm.331-1.021h2.407l.2-.616h-2.4Zm-60.895-.239c.365-.015.823-.038,1.335-.069l.121-.374h-.877l.108-.329h.878l.116-.359h-.968l.059-.18h-.472l.334-1.027h2.947a3.23,3.23,0,0,0-.072-.427l.58-.127a2.576,2.576,0,0,1,.113.554h2.789l-.336,1.035h-.526l.19-.584H-68.56l-.131.4H-66.3l-.113.352h-.992l-.117.359h.886l-.106.329h-.886l-.113.347,1.049-.069-.131.383c-1.028.076-2.085.142-2.822.2Zm3.047.359.229-.7h.419l-.123.375h.653l.16-.5h-1.312l.108-.329h.271a.631.631,0,0,0-.228-.179,4.041,4.041,0,0,0,.915-.833l.391.069a3.322,3.322,0,0,1-.253.291h1.86l-.108.331h-.96l-.1.321h1.335l-.106.329H-64.7l-.162.5h.685l.121-.375h.428l-.229.7Zm.5-1.155h.945l.1-.321H-65.6A5.143,5.143,0,0,1-66.008-61.9Zm31.187-.427a12.147,12.147,0,0,0,2.246-1.626l.463.21a14.774,14.774,0,0,1-2.524,1.859A3.217,3.217,0,0,0-34.821-62.329Zm24.381-1.439.541-.142c0,.389.015.876.009,1.2l-.568.172C-10.441-62.861-10.438-63.379-10.44-63.768Zm-21.2.794.169-.525h3.659l-.171.525Z" transform="translate(87.76 119.238)" fill="#717071" stroke="rgba(0,0,0,0)" stroke-width="1"/>
      <path id="BIKE全書" d="M-40.278-57.081l.762-2.347h4.844l-.761,2.34h-.7l.07-.217h-3.457l-.073.224Zm.906-.69h3.457l.129-.4h-3.457Zm.271-.832h3.456l.121-.374h-3.455Zm-11.177,1.311.2-.629h2.751l.358-1.1h-2.016l.2-.607h2.018l.331-1.02h-1.679l.2-.607c-.406.232-.8.434-1.17.6a1.717,1.717,0,0,0-.248-.569,13.953,13.953,0,0,0,3.259-1.889h-1.193l.213-.653h2.39a4.534,4.534,0,0,0,2.336,2.452,5.651,5.651,0,0,0-.678.629,4.765,4.765,0,0,1-.788-.546l-.19.584H-45.7l-.331,1.02h2.038l-.2.607H-46.23l-.358,1.1h2.842l-.205.629Zm2.377-3.973h4.071a5.745,5.745,0,0,1-1.423-1.851A17.411,17.411,0,0,1-47.9-61.264ZM-71-57.537l1.914-5.89H-67.3c1.2,0,1.915.4,1.575,1.444A1.994,1.994,0,0,1-67-60.705l-.011.036c.644.142.986.6.725,1.407a2.713,2.713,0,0,1-2.8,1.725Zm1.035-.651h.988a1.759,1.759,0,0,0,1.9-1.111c.228-.7-.214-1.014-1.207-1.014h-.989Zm.895-2.752h.84c.956,0,1.471-.356,1.658-.933.214-.658-.156-.9-1.031-.9h-.869Zm11.583,3.4,1.914-5.889h3.431l-.226.695h-2.607l-.572,1.761h2.2l-.226.695h-2.2l-.664,2.043h2.7l-.226.695Zm-1.977,0-.745-2.988-1.347,1.163-.593,1.825h-.823l1.914-5.889h.823l-.938,2.884h.026l3.3-2.884h.925L-59.5-61.17l.945,3.632Zm-6.027,0,1.913-5.889h.824l-1.914,5.889Zm25.133-2.2.163-.5h2.938l.117-.36h-2.42l.145-.45h2.422l.111-.345h-2.24l.144-.442h2.24l.12-.368h-2.93l.163-.5h2.931l.116-.359h-2.152l.139-.427H-36.2l.165-.51h.706l-.167.51h2.108l-.257.787h.886l-.164.5h-.885l-.264.81h-2.106l-.112.345h2.475l-.148.45h-2.472l-.117.36h3l-.164.5Zm4.325-2.1h1.417l.12-.368h-1.417Zm.283-.87h1.417l.117-.359h-1.417Z" transform="translate(113.064 128.948)" fill="#1744c2" stroke="rgba(0,0,0,0)" stroke-width="1"/>
      <path id="Bike" d="M125.605,33.147a15.211,15.211,0,0,0-8.01,2.494c1.2-2.47,4.372-6.556,12.352-5.864a1.716,1.716,0,0,0,1.862-1.588A1.782,1.782,0,0,0,130.19,26.3C115.968,25.04,113.525,36.535,113.5,36.65a1.753,1.753,0,0,0,.629,1.7,23.492,23.492,0,0,0-6.079,10.463,6.207,6.207,0,0,0-3.809-1.158c-.213,0-.407.064-.616.085l-.025.076c.135-.628.319-1.243.4-1.88,1-7.854-2.6-12.807-9.792-12.807-.4,0-.785.109-1.182.144L95.1,27.215l4.562-.813a1.738,1.738,0,0,0,1.4-2.017,1.825,1.825,0,0,0-2.08-1.433l-2.862.5-3.669.7L89.4,24.7l2.369-6.4a1.776,1.776,0,0,0-1.047-2.25,1.722,1.722,0,0,0-2.232,1.008l-3.443,9.268a1.792,1.792,0,0,0,.3,1.745,1.9,1.9,0,0,0,1.367.62.955.955,0,0,0,.31-.039l4.137-.737-2.187,6.323C82.3,36.846,76.985,44.043,75.982,51.918c-1,7.851,2.6,12.806,9.792,12.806,6.737,0,12.909-5.011,16.106-11.673a2.826,2.826,0,0,1,2.464-1.514h.022a2.822,2.822,0,0,1,2.017.867,2.865,2.865,0,0,1,.848,2.092h.011c.022,6.346,3.569,10.214,9.918,10.214,9,0,16.983-8.917,18.245-18.766.988-7.872-2.588-12.8-9.8-12.8M98.945,46.278c-.906,7.111-6.41,14.41-12.4,14.41-4.5,0-6.205-3.578-5.5-9.106.906-7.111,6.409-14.411,12.4-14.411,4.5,0,6.208,3.58,5.506,9.108m31.388.015c-.884,7.1-6.379,14.386-12.389,14.386-4.5,0-6.189-3.568-5.51-9.112.923-7.1,6.418-14.386,12.428-14.386,4.5,0,6.189,3.568,5.471,9.112" transform="translate(37.768 7.902)" fill="#fcb118"/>
      <path id="Location" d="M42.05,6.53A7.96,7.96,0,0,0,33.8,11.987a5.145,5.145,0,0,0,3.252,6.419l.046,4.709,3.241-4.387a7.892,7.892,0,0,0,6.539-5.386A5.276,5.276,0,0,0,42.05,6.53m.681,6.385a2.939,2.939,0,0,1-3.033,2,1.933,1.933,0,0,1-1.755-2.5,2.9,2.9,0,0,1,3.033-2,1.932,1.932,0,0,1,1.755,2.5" transform="translate(16.742 3.205)" fill="#ff4000"/>
      <path id="联合_2" data-name="联合 2" d="M-39.716-57.06a6.432,6.432,0,0,1,.464-2.04,23.219,23.219,0,0,1,2.086-2.737,6.52,6.52,0,0,1,3.992-1.377c.052,0,.106,0,.159,0a6.156,6.156,0,0,1,2.734.708C-33.6-60.351-36.3-56.236-37.431-51.9A6.062,6.062,0,0,1-39.716-57.06Zm-31.272-.786a6.407,6.407,0,0,1,.494-2.11,22.47,22.47,0,0,1,2.7-3.109A6.483,6.483,0,0,1-64.448-64l.162,0a6.139,6.139,0,0,1,3.127.934c-3.479,1.8-6.411,5.8-7.792,10.173A6.069,6.069,0,0,1-70.988-57.846Z" transform="translate(190.036 111.076)" fill="#031394" stroke="rgba(0,0,0,0)" stroke-width="1"/>
      <path id="BiKEBOOK_type" d="M46.732-1.835l2.354-2.831a5.868,5.868,0,0,0,5.025,1.242,3.383,3.383,0,0,0,2.141-1.628,4.767,4.767,0,0,0,.131-3.685h3.761A7.6,7.6,0,0,1,59.5-3.309,6.838,6.838,0,0,1,55.1.1a8.147,8.147,0,0,1-2.165.31A9.966,9.966,0,0,1,46.732-1.835ZM98.389-12.494,95.375-25.835l-5.231,4.851-2.812,8.49H82.088L91.23-40.458h5.243L92.547-28.4h.142l12.916-12.055h5.742L99.667-29.152l4.145,16.658Zm-103.469,0,7.7-23.541H-8.937L.2-64H16.47l-1.421,4.423H3.956l-2.2,6.813h9.383L9.716-48.377H.335l-2.643,7.918H12.3c5.528,0,8.988,2,8.42,6.313-.4,3.389-3.355,6.028-6.977,6.992l-.1.178c2.973.714,4.61,2.5,4.231,5.351-.815,6.491-6.547,9.13-13.109,9.13Zm6.529-4.03h3.96c4.28,0,6.962-1.64,7.369-4.887.314-2.389-1.173-3.852-4.454-3.852h-4ZM5.514-28.867h3.1c4.244,0,6.317-1.784,6.628-4.387.286-2-1.09-3.175-4.442-3.175H7.985ZM66.031-24.2a6.056,6.056,0,0,1-5.94-6.467,6.6,6.6,0,0,1,6.7-6.152,6.059,6.059,0,0,1,5.94,6.469A6.6,6.6,0,0,1,66.194-24.2ZM34.76-24.988a6.056,6.056,0,0,1-5.94-6.467,6.6,6.6,0,0,1,6.7-6.153,6.059,6.059,0,0,1,5.94,6.469,6.6,6.6,0,0,1-6.538,6.153ZM-18.031-36.036l-3.015-13.341-5.23,4.852-2.812,8.489h-5.244L-25.191-64h5.243l-3.927,12.055h.142L-10.815-64h5.742L-16.718-52.694l4.143,16.658Zm-27.823,0,6.907-21.151h5.207l-6.908,21.151Zm-25.146,0L-61.856-64h8.239c5.528,0,8.987,2,8.42,6.313-.4,3.389-3.355,6.028-6.977,6.991l-.1.178c2.974.715,4.611,2.5,4.232,5.351-.815,6.491-6.547,9.13-13.11,9.13Zm6.529-4.03h3.96c4.279,0,6.961-1.64,7.369-4.887.314-2.389-1.173-3.852-4.491-3.852h-3.958Zm4.065-12.341h3.1c4.244,0,6.317-1.784,6.629-4.388.25-2-1.089-3.175-4.442-3.175h-2.819Z" transform="translate(90.228 84.684)" fill="#1744c2" stroke="rgba(0,0,0,0)" stroke-width="1"/>
      <path id="space_nose" d="M86.038,43.465l-.353,3.424,2.293,3.74,5.691-4.854-5.45-2.639Z" transform="translate(42.679 21.442)" fill="#fff"/>
      <path id="nose" d="M88.128,45.986a.484.484,0,0,0-.069.5A18.058,18.058,0,0,0,91.7,52.966l-2.79,2.365a21.747,21.747,0,0,1-4.363-7.794,4.069,4.069,0,0,1,5.145-5.2L97.174,44.4l-1.18,3.491-7.209-2.017c-.312-.076-.544-.039-.657.117" transform="translate(42.014 20.954)" fill="#1744c2"/>
    </g>
  </g>
</svg>
