<svg xmlns="http://www.w3.org/2000/svg" width="27.994" height="28" viewBox="0 0 27.994 28">
  <g id="subLogo" transform="translate(-611 111)">
    <path id="联合_4" data-name="联合 4" d="M-26.573-6.754V-9.916h6.28v3.151h-.914v-.292h-4.479v.3Zm.886-.931h4.48v-.535h-4.48Zm0-1.12H-21.2v-.5h-4.481Zm-2.109-1.526v-.678h3.81v-.483h-3.138V-12.1h3.138v-.464h-2.906v-.6h2.906v-.494h-3.8v-.678h3.8v-.485h-2.79v-.576h2.79v-.686h.913v.686h2.733v1.061h1.147v.678h-1.147v1.092h-2.733v.464h3.208v.607h-3.208v.483h3.889v.678Zm4.722-2.83h1.839v-.494h-1.839Zm0-1.172h1.839v-.486h-1.839Zm-4.489-4.439v-.847h3.567V-21.1h-2.613v-.818h2.613V-23.3h-2.179v-.818a11.153,11.153,0,0,1-1.262.808A3.476,3.476,0,0,0-28-24.074a11.686,11.686,0,0,0,3.433-2.546h-1.544v-.88h3.1a9.44,9.44,0,0,0,4.064,3.3,4.681,4.681,0,0,0-.614.849,9.2,9.2,0,0,1-1.253-.738v.788h-2.225v1.374H-20.4v.818h-2.644v1.487h3.683v.847Zm1.41-5.354h5.277a12.092,12.092,0,0,1-2.623-2.5A14.393,14.393,0,0,1-26.151-24.125Z" transform="translate(653.95 -79.832)" fill="#bccaf0" stroke="rgba(0,0,0,0)" stroke-width="1"/>
    <path id="联合_3" data-name="联合 3" d="M-28-6.418V-10.8h7.3V-6.52h-1.213V-9.406H-23.6v2.452h-1.226V-9.406h-1.952v2.988Zm0-7.047,3.273-1.8-1.219-.913H-28v-1.4h7.3v1.4h-3.17v.027l3.17,2.312V-12.3l-2.872-2.134L-28-11.925Zm0-5.974v-1.4h7.3v1.4Zm0-5.569V-27.5h7.3v2.31c0,1.435-.436,2.529-1.8,2.529a1.66,1.66,0,0,1-1.578-.954h-.05A1.641,1.641,0,0,1-25.847-22.3C-27.319-22.3-28-23.473-28-25.008Zm1.126-.123c0,.954.355,1.472,1.112,1.472.71,0,1.008-.509,1.008-1.472V-26.1h-2.12Zm3.2-.162c0,.889.377,1.274.957,1.274.64,0,.9-.414.9-1.253V-26.1h-1.854Z" transform="translate(643 -80)" fill="#bccaf0" stroke="rgba(0,0,0,0)" stroke-width="1"/>
    <path id="路径_2006" data-name="路径 2006" d="M162.534,38.825H137.6a1.535,1.535,0,0,1-1.535-1.535V12.361a1.536,1.536,0,0,1,1.535-1.536h24.929a1.535,1.535,0,0,1,1.53,1.536V37.29a1.534,1.534,0,0,1-1.53,1.535M137.6,11.5a.861.861,0,0,0-.861.859V37.29a.859.859,0,0,0,.861.858h24.929a.86.86,0,0,0,.858-.858V12.361a.861.861,0,0,0-.858-.859Z" transform="translate(474.93 -121.825)" fill="#bccaf0"/>
  </g>
</svg>
