<svg xmlns="http://www.w3.org/2000/svg" xmlns:xlink="http://www.w3.org/1999/xlink" width="360" height="720" viewBox="0 0 360 720">
  <defs>
    <clipPath id="clip-path">
      <rect id="bikebook_bg" width="360" height="720" transform="translate(0 -40)" fill="none"/>
    </clipPath>
  </defs>
  <g id="index_bg" transform="translate(0 40)" clip-path="url(#clip-path)">
    <path id="輔助圖形" d="M516.394,222.795c-38.473-.008-75.136,13.078-108.428,33.76,16.21-33.437,59.189-88.744,167.178-79.361a23.261,23.261,0,0,0,25.227-21.508,24.164,24.164,0,0,0-21.924-25.562c-192.51-17.061-225.563,138.514-225.891,140.084a23.732,23.732,0,0,0,8.5,23.065c-38.256,37.772-67.5,87.354-82.26,141.6-15.8-10.716-34.616-16.938-51.569-15.655-2.879.022-5.5.861-8.319,1.147l-.354,1.046c1.828-8.5,4.317-16.83,5.43-25.458,13.514-106.3-35.155-173.344-132.561-173.324-5.421-.011-10.611,1.468-15.989,1.94l28.07-82.055,61.756-11.015c13.069-2.629,21.264-14.693,18.947-27.3a24.721,24.721,0,0,0-28.155-19.4L117.31,91.6l-49.672,9.451L26.284,108.41l32.072-86.6c4.52-12.081-2-25.727-14.171-30.447A23.313,23.313,0,0,0,13.977,5l-46.6,125.441c-3.025,7.87-1.3,16.788,4.077,23.615a25.616,25.616,0,0,0,18.509,8.392,12.9,12.9,0,0,0,4.2-.531l55.988-9.972-29.6,85.59c-90.295,35.338-162.255,132.74-175.838,239.327C-168.8,583.123-120.1,650.185-22.743,650.187c91.192-.009,174.722-67.83,218.012-158,8.121-13.315,19.269-20.366,33.328-20.488l.311,0a38.149,38.149,0,0,1,27.315,11.735A38.848,38.848,0,0,1,267.7,511.741l.122.022c.313,85.878,48.309,138.249,134.249,138.251C523.852,650,631.951,529.3,649.034,396c13.383-106.554-35.029-173.208-132.641-173.2M155.52,400.523C143.274,496.76,68.762,595.557-12.309,595.56c-60.89,0-83.989-48.431-74.473-123.255C-74.534,376.066-.041,277.249,81,277.25c60.881,0,84.039,48.443,74.521,123.273m424.841.207c-11.946,96.031-86.328,194.7-167.69,194.707-60.878.009-83.76-48.283-74.582-123.331,12.489-96.047,86.871-194.718,168.221-194.719,60.876,0,83.782,48.281,74.05,123.344" transform="translate(328.947 -53.272) rotate(42)" fill="#1f58db" opacity="0.8"/>
  </g>
</svg>
